<svg xmlns="http://www.w3.org/2000/svg" viewBox="0 0 367.02 388.9"><defs><style>.cls-1{fill:#edcf8e;}.cls-2{fill:#db9909;}</style></defs><g id="S"><path class="cls-1" d="M319.19,376.59c7.44,4,15.09,7.56,22.89,10.82s15.84,6,24,8.37A235.84,235.84,0,0,0,391,401.36a188.21,188.21,0,0,0,25.57,2.45,184.23,184.23,0,0,0,25.81-1l3.22-.34c1.07-.13,2.14-.33,3.21-.5l6.4-1.05c4.23-1,8.5-1.72,12.66-3a163.84,163.84,0,0,0,24.37-8.75,65,65,0,0,0,15.79-27,159.7,159.7,0,0,1-22.25,12.39,151.13,151.13,0,0,1-22.14,8.1c-3.76,1.21-7.64,2-11.46,2.91-3.89.67-7.75,1.53-11.69,2-31.38,4.43-64.05.19-94.63-10.17q-11.46-4-22.55-9-9.49-4.45-18.63-9.71Q302.25,361.8,300,365,309.31,371.2,319.19,376.59Z" transform="translate(-230.21 -118.41)"/><path class="cls-1" d="M591.6,266.62a98.51,98.51,0,0,0-13.71-24.27c-11.24-14.68-25.67-26.28-41.3-35.11a194.26,194.26,0,0,0-24.29-11.39,232.4,232.4,0,0,0-25.45-7.91,363.35,363.35,0,0,0-51.74-8.59c-8.68-.84-17.37-1.39-26.06-1.75-4.33-.17-8.68-.31-13.1-.33l-12.89,0c-4.24,0-8.41-.1-12.52-.38a81.22,81.22,0,0,1-12-1.58c-7.81-1.56-14.87-4.84-20.07-10.18a18.48,18.48,0,0,1-5.09-8.84,15.47,15.47,0,0,1,1.28-9.81,28.33,28.33,0,0,1,6.74-8.89,43,43,0,0,1,9.77-6.56,69.31,69.31,0,0,1,23.51-6.34c8.13-.66,16.8.09,24.09,3.57l1.39.74,2.93-3.93L401,124c-8.09-4.38-17.74-5.82-26.72-5.55A73.59,73.59,0,0,0,348,124.3a50.66,50.66,0,0,0-11.88,7.3A36.59,36.59,0,0,0,327,142.78,24,24,0,0,0,324.53,158a27.62,27.62,0,0,0,7,13.55c6.58,7.3,15.75,11.74,24.67,13.82a92.1,92.1,0,0,0,13.45,2.25c4.45.46,8.88.66,13.23.79l12.9.31c4.17.13,8.41.37,12.66.66,8.48.57,16.93,1.34,25.34,2.38a379.91,379.91,0,0,1,49.74,9.37A218.71,218.71,0,0,1,507.13,209a180,180,0,0,1,22.16,10.91c14.07,8.36,26.85,18.87,36.38,31.66s15.51,27.83,15.67,43.12-5.71,30.2-15.39,42.54c-1.24,1.54-2.39,3.12-3.78,4.55l-2,2.19-1,1.1-1.11,1.08-4.45,4.32-2.23,2.16-11,10.35s-1.94,13.87-7.9,24.76c2.2-1.35,4.38-2.74,6.46-4.26l5.52-3.86,5.29-4.13c3.59-2.69,6.88-5.71,10.25-8.65.83-.75,1.69-1.46,2.5-2.23l2.39-2.33,4.78-4.68,1.2-1.17,1.17-1.29,2.33-2.57c1.61-1.67,3-3.55,4.45-5.37a91,91,0,0,0,13.74-24.61,78.14,78.14,0,0,0,4.68-28.15A82.76,82.76,0,0,0,591.6,266.62Z" transform="translate(-230.21 -118.41)"/><path class="cls-1" d="M278.19,337c-3.2-2.45-6.25-5.06-9.29-7.69l-4.39-4.13c-1.43-1.4-2.81-2.86-4.22-4.29a123,123,0,0,1-14.78-18.85,68.24,68.24,0,0,1-9.23-21.75l-.57-2.88c-.18-1-.2-1.94-.31-2.91a39,39,0,0,1-.14-5.82,35.2,35.2,0,0,1,2.44-11.26,32.8,32.8,0,0,1,2.56-5.18,22.49,22.49,0,0,1,1.64-2.39c.37-.48.71-1,1.07-1.46a89.53,89.53,0,0,0-9.93,9.49,42.19,42.19,0,0,0-2,10.59,44.21,44.21,0,0,0,.14,6.41c.12,1.06.15,2.13.35,3.17l.57,3.13c1.64,8.35,5.24,16.06,9.41,23.27a126.82,126.82,0,0,0,14.79,20.09,197.23,197.23,0,0,0,29.88,27c1.48-1.89,3-3.74,4.57-5.55C286.45,343.16,282.26,340.18,278.19,337Z" transform="translate(-230.21 -118.41)"/></g><g id="P"><path class="cls-2" d="M531,308.9c-7.54-17.46-19.25-32.23-32.59-44.58a174.76,174.76,0,0,0-21.33-16.77,197.19,197.19,0,0,0-23.3-13.43c-32.07-15.89-67.47-23.41-102.48-24a269,269,0,0,0-52.15,4.24c-8.56,1.67-17.16,3.42-25.44,6.43s-16.42,6.61-23.61,11.93c-.89.67-1.84,1.27-2.68,2l-2.51,2.24-1.25,1.13a16.88,16.88,0,0,0-1.15,1.24l-2.26,2.52a29.92,29.92,0,0,0-2,2.72,27.68,27.68,0,0,0-1.87,2.83c-.72,1.37-1.48,2.71-2.12,4.11A98.65,98.65,0,0,1,252.5,236.8l.39-.28a82.18,82.18,0,0,1,22.52-10.61,148.75,148.75,0,0,1,24.74-5.18,219.75,219.75,0,0,1,25.35-1.89,245.91,245.91,0,0,1,25.33.78,242.17,242.17,0,0,1,49.37,9.64A227.71,227.71,0,0,1,423.65,238a216.26,216.26,0,0,1,22.26,11,193.81,193.81,0,0,1,39.24,29.3c11.47,11.34,21.28,24.29,27.32,38.52a82.72,82.72,0,0,1,3.75,10.8,65.1,65.1,0,0,1,2.06,11.05,61,61,0,0,1,.14,11.06c0,.35-.08.7-.12,1,.06,5.29-4,21.07-15.42,34.37l.35-.17a99.13,99.13,0,0,1-12.44,12.21l-4.68,3.65-4.9,3.43-5.09,3.24-5.33,3-5.33,3L459.93,416l-5.54,2.58-5.71,2.16L443,422.91l-5.86,1.75c-2,.56-3.89,1.2-5.87,1.71l-6,1.35c-2,.43-4,1-6,1.32l-6.06,1c-4,.79-8.14,1-12.23,1.5a218.18,218.18,0,0,1-49.6-1.51,296.67,296.67,0,0,1-49-11.28c-8.81-2.73-17.51-5.89-26.1-9.35q2.11-7.26,4.86-14.31a153.67,153.67,0,0,1,12.09-24.3c1.83-3.11,3.82-6.12,5.9-9.08,1.58-2.23,3.23-4.42,4.91-6.59s3.43-4.31,5.2-6.44c11.9-13.92,25.95-26.16,41.1-37.35l2-1.49L350,306,347.75,307a169.59,169.59,0,0,0-47.33,33.61c-2.42,2.54-4.8,5.14-7.1,7.81-1.64,1.9-3.24,3.84-4.78,5.83-2.35,3-4.57,6.14-6.63,9.38A143.54,143.54,0,0,0,268.23,390q-2.73,6.9-4.77,14-4.23-1.86-8.41-3.79c-7.73-3.56-22.79-11.51-22.79-11.51l-2,4.49s13.17,11.08,20.61,15.26q5.06,2.82,10.19,5.47a155.92,155.92,0,0,0-3.55,33.92A168.09,168.09,0,0,0,260.2,477c.9,4.78,2,9.53,3.31,14.2A108.66,108.66,0,0,0,268.37,505l1,2.29,4.2-1.46-.5-2.47c-.45-2.18-.91-4.51-1.25-6.8s-.73-4.59-1-6.9c-.58-4.61-1.08-9.23-1.32-13.86a207,207,0,0,1-.05-27.62,180.12,180.12,0,0,1,4-28.14l.61.29c3.93,1.91,8,3.57,12,5.35s8.08,3.35,12.17,4.9A305.43,305.43,0,0,0,349,444.89a223.28,223.28,0,0,0,53.17,3.56c4.47-.32,9-.48,13.41-1.17l6.69-.87c2.24-.27,4.43-.82,6.65-1.22l6.63-1.34c2.2-.52,4.36-1.18,6.54-1.76l6.53-1.81L455,438l6.39-2.28,6.22-2.72,6.21-2.75,6-3.18,6-3.19,5.87-3.56,5.74-3.85,5.57-4.16A105.29,105.29,0,0,0,522.71,392a83.24,83.24,0,0,0,12.92-26.09c.13-.49.25-1,.37-1.47a91.69,91.69,0,0,0,1.73-31.8,81.48,81.48,0,0,0-2.07-10.22A94.8,94.8,0,0,0,531,308.9Z" transform="translate(-230.21 -118.41)"/></g></svg>