<svg xmlns="http://www.w3.org/2000/svg" viewBox="0 0 144 144"><defs><style>.cls-1{fill:#303;}.cls-2{fill:#3cc;}.cls-3{fill:#099;}.cls-4{fill:#c9c;}.cls-5{fill:#ccf;}.cls-6{fill:#336;}.cls-7{fill:#669;}</style></defs><g id="ipad"><g id="ipad_bg" data-name="ipad bg"><rect class="cls-1" width="144" height="144" rx="24"/></g><g id="yarn"><g id="outline"><path class="cls-2" d="M97.53,30.21h0l-1.37.54A24.1,24.1,0,0,1,90,46.33c-.59,0-1.15,0-1.72-.08l.18-.3a29,29,0,0,0,3.24-13.37l-.34.14-1,.41-.85.35a34.29,34.29,0,0,1-9,11l-.53.43c-.3-.07-.58-.18-.87-.27-.69-.19-1.36-.42-2-.67a31.91,31.91,0,0,0,2.69-2.39c.56-.55,1.11-1.08,1.63-1.66a38.16,38.16,0,0,0,3.42-4.51l-2.29.95c-.28.38-.55.75-.83,1.11-.52.64-1,1.26-1.56,1.86a34.39,34.39,0,0,1-4.46,4.09c-.5-.19-1-.39-1.44-.62l-.67-.28c.27-.21.51-.44.76-.66a35.35,35.35,0,0,0,3.52-3.61l-2.78,1.06c-.2.21-.39.43-.6.62,0-.13,0-.26,0-.39L73.21,40c0,.39,0,.79-.08,1.18-.26.23-.53.44-.79.66-.57-.3-1.14-.62-1.69-.94l-1.19.41h0l-.45.15.46.31c.55.35,1.15.63,1.72,1s.83.48,1.27.71l.42.21c.41.2.84.36,1.26.53l.3.14c.48.22,1,.45,1.44.62a27.7,27.7,0,0,0,2.83,1l.11,0,1.27.35.25.05a39.85,39.85,0,0,0,5.66,1l1.49.14c.42,0,.83,0,1.24.07a25,25,0,0,1-3,2.48l0,0h0c-.66.07-1.31.14-2,.17a29.39,29.39,0,0,1-4.88-.14c-.46,0-.91-.09-1.35-.16-.78-.12-1.56-.28-2.32-.46-.58-.14-1.19-.3-1.77-.48a.45.45,0,0,1-.16,0c-.37-.13-.74-.23-1.1-.37s-1-.34-1.47-.53l-1.39-.62a1.46,1.46,0,0,1-.25-.13c-.36-.16-.69-.33-1.05-.53l-.53-.27c-.46-.24-.92-.53-1.36-.81S65.33,45.27,65,45s-.93-.67-1.39-1c-.25-.19-.47-.39-.71-.58l-1.56.45c.77.67,1.57,1.29,2.39,1.88.32.21.62.43.92.62s.34.19.5.3.58.39.9.57.92.53,1.4.78a3.29,3.29,0,0,0,.46.23c.37.19.76.39,1.13.55l.14.07c.73.31,1.45.6,2.18.86.18.07.35.15.53.2.43.14.85.3,1.28.42l.17,0a28.37,28.37,0,0,0,3.63.81c.44.07.9.16,1.36.22a33,33,0,0,0,3.72.24h.2c-.23.19-.45.35-.66.51a26.86,26.86,0,0,1-3.89.49c-.52,0-1,.06-1.54.06a25.89,25.89,0,0,1-3.51-.25l-1.31-.21c-.67-.13-1.34-.29-2-.48-.14,0-.3-.07-.44-.12l-1.29-.41c-.21-.07-.43-.14-.64-.23-.56-.21-1.13-.44-1.68-.69l-.32-.14c-.34-.16-.69-.34-1-.52s-.49-.26-.76-.4L62,48.6c-.5-.32-1-.67-1.49-1a25.45,25.45,0,0,1-2.67-2.21c-.16-.15-.3-.3-.45-.45l-1.51.36c.34.36.69.72,1,1.06.57.55,1.19,1.07,1.81,1.56a23.33,23.33,0,0,1-2.78.22,25.52,25.52,0,0,1-2.28-2.37L52.19,46a25.34,25.34,0,0,0,2.43,2.64.33.33,0,0,0,0,.13.67.67,0,0,0,.67.67l.22,0c.31.28.65.55,1,.8a.59.59,0,0,0-.11.32.67.67,0,0,0,.67.67c.23,0,.46,0,.68-.05.72.49,1.47,1,2.24,1.39a.68.68,0,0,0,.62.43l.23,0a24.81,24.81,0,0,0,3.54,1.45l.09,0a25,25,0,0,0,6.52,1.11,2.3,2.3,0,0,0,.37,0c.25,0,.5,0,.76,0A25.42,25.42,0,0,0,75,55.47h.09a.1.1,0,0,1,.07,0A25.15,25.15,0,0,0,80,54.39,5.8,5.8,0,0,0,81.08,54c.64-.25,1.26-.51,1.86-.79l.81-.22a.61.61,0,0,0,.43-.39,20.16,20.16,0,0,0,2-1.24c.33,0,.67-.07,1-.12a.66.66,0,0,0,.55-.76,1.72,1.72,0,0,0-.07-.21,26.36,26.36,0,0,0,2.82-2.57l.14,0a.67.67,0,0,0,.67-.67.43.43,0,0,0,0-.18A25.35,25.35,0,0,0,97.53,30.21ZM87.26,45.33c-.16.3-.34.56-.5.85a40.66,40.66,0,0,1-5.09-.87,35.9,35.9,0,0,0,8.58-10.39A27.21,27.21,0,0,1,87.26,45.33ZM58.1,49.84l-.63-.48c.93-.09,1.87-.19,2.78-.37.28.19.56.41.85.6A29.59,29.59,0,0,1,58.1,49.84ZM60,51.06c1-.09,1.92-.25,2.88-.42.34.17.67.35,1,.51l.55.27c-.18,0-.36,0-.55.07-.94.1-1.88.14-2.85.16C60.71,51.47,60.35,51.26,60,51.06Zm7.22,2.78c-.66-.14-1.31-.32-2-.49L64,52.88l-.16-.05a.47.47,0,0,0,.16,0c.44,0,.88-.12,1.32-.19s1-.14,1.54-.25c.18.07.37.14.57.2C67.31,53.1,67.26,53.52,67.24,53.84Zm3.47.43c-.73-.06-1.44-.13-2.14-.23,0-.22,0-.61.08-1,.77.21,1.51.39,2.27.55C70.85,53.77,70.78,54,70.71,54.27Zm4.12-.11a22.74,22.74,0,0,1-2.76.16c.07-.2.12-.39.18-.59a26.56,26.56,0,0,0,2.83.25Z"/><path class="cls-2" d="M48,30.21a24.76,24.76,0,0,1,.46-4.75,27.77,27.77,0,0,0,5.95,18.07c.49-.1,1-.21,1.45-.33-5.3-6.3-7.25-14.7-5.38-23.58l.08-.18c0-.06,0-.06,0,0A30.41,30.41,0,0,0,59.2,41.91l.35.35L61,41.84c-.29-.29-.6-.56-.88-.85a28.88,28.88,0,0,1-8-24.32c.27-.38.55-.73.81-1.1a32.61,32.61,0,0,0,9.63,20.71c.52.51,1,1,1.58,1.54A33,33,0,0,0,66.93,40l1.17-.38.39-.12.34-.11c.19-.07.39-.15.59-.21A81.71,81.71,0,0,0,62,8.29a25,25,0,0,1,3.81-1.36c4,3.22,7.91,16.43,7.47,30.91l1.3-.49c.26-13.85-3.38-26.54-7.25-30.79a23.19,23.19,0,0,1,4.43-.46c7.45,7.43,9,18,8.92,25.84A37,37,0,0,1,78,36.06l2.3-.92.39-.56c.49-.74,1-1.5,1.4-2.3a44.18,44.18,0,0,0,5.1-14.59c.14-.81.24-1.63.33-2.44.13-1.1.21-2.21.27-3.35A25.7,25.7,0,0,1,90,14.1a40,40,0,0,1-.53,5.84c-.16.9-.34,1.79-.55,2.67a38.55,38.55,0,0,1-4.34,10.75l2-.84a39.57,39.57,0,0,0,3-7.25c.27-.89.5-1.79.71-2.71a43.86,43.86,0,0,0,1-7,23.8,23.8,0,0,1,2.21,3.45,36.29,36.29,0,0,1-1.93,9.74c-.23.68-.48,1.33-.75,2l.87-.37.82-.34a37.49,37.49,0,0,0,2.1-8.53,24,24,0,0,1,1.56,7.06l1.31-.53a25.28,25.28,0,0,0-2.65-9.29c0-.62.1-1.22.1-1.84a.67.67,0,0,0-1.29-.25,24.91,24.91,0,0,0-2.27-3.08c0-.07,0-.14,0-.21a.67.67,0,0,0-.67-.67l-.13,0a25.56,25.56,0,0,0-2.76-2.53c0-.12,0-.25,0-.37a.67.67,0,0,0-.67-.67.71.71,0,0,0-.48.21,24.17,24.17,0,0,0-3.82-2.21L82.5,7A25.27,25.27,0,0,0,72.07,4.75v0h0A25.36,25.36,0,0,0,66,5.53a.7.7,0,0,0-.37.09,26.51,26.51,0,0,0-4,1.43.64.64,0,0,0-.26.13h0l-.21.11-.18,0-.16.12a25.37,25.37,0,0,0-7.11,5.29l-.13,0a.67.67,0,0,0-.67.67c0,.07,0,.14,0,.21-.29.32-.55.66-.8,1a.91.91,0,0,0-.18-.08.65.65,0,0,0-.79.51c-.07.39-.13.78-.2,1.15h0a61.61,61.61,0,0,0-3,6.41,23.22,23.22,0,0,0-.63,2.35,24.74,24.74,0,0,0-.58,5.27,25.21,25.21,0,0,0,4.25,14L52.3,44A23.87,23.87,0,0,1,48,30.21ZM86.43,10.88c0,.7,0,1.41-.09,2.12-.62-1.15-1.29-2.34-2-3.54A19.71,19.71,0,0,1,86.43,10.88ZM82,8.24a59.15,59.15,0,0,1,4.14,7.24A43.6,43.6,0,0,1,82,29.53c-.26-7.38-2.1-16.46-8.35-23.36A23.69,23.69,0,0,1,82,8.24Zm-21.12.64a80.72,80.72,0,0,1,7.24,30.37,34.11,34.11,0,0,1-4.3-3.63,78.76,78.76,0,0,0-7.88-23.27A24.68,24.68,0,0,1,60.85,8.88Zm-6,4.42a76.16,76.16,0,0,1,7.17,20.54,30.83,30.83,0,0,1-7.88-19.76C54.42,13.81,54.65,13.55,54.9,13.3Z"/></g><g id="colour"><path class="cls-3" d="M64.46,51.42l-.55-.27c-.34-.16-.67-.34-1-.51-1,.17-1.91.33-2.88.42.33.2.69.41,1,.59,1,0,1.91-.06,2.85-.16C64.1,51.47,64.28,51.43,64.46,51.42Z"/><path class="cls-3" d="M81.67,45.31a40.66,40.66,0,0,0,5.09.87c.16-.29.34-.55.5-.85a27.21,27.21,0,0,0,3-10.41A35.9,35.9,0,0,1,81.67,45.31Z"/><path class="cls-3" d="M86.43,10.88A19.71,19.71,0,0,0,84.3,9.46c.75,1.2,1.42,2.39,2,3.54C86.39,12.29,86.41,11.58,86.43,10.88Z"/><path class="cls-3" d="M86.11,15.48A59.15,59.15,0,0,0,82,8.24a23.69,23.69,0,0,0-8.32-2.07c6.25,6.9,8.09,16,8.35,23.36A43.6,43.6,0,0,0,86.11,15.48Z"/><path class="cls-3" d="M68.09,39.25A80.72,80.72,0,0,0,60.85,8.88a24.68,24.68,0,0,0-4.94,3.47,78.76,78.76,0,0,1,7.88,23.27A34.11,34.11,0,0,0,68.09,39.25Z"/><path class="cls-3" d="M54.9,13.3c-.25.25-.48.51-.71.78a30.83,30.83,0,0,0,7.88,19.76A76.16,76.16,0,0,0,54.9,13.3Z"/><path class="cls-3" d="M72.07,54.32a22.74,22.74,0,0,0,2.76-.16l.25-.18a26.56,26.56,0,0,1-2.83-.25C72.19,53.93,72.14,54.12,72.07,54.32Z"/><path class="cls-3" d="M68.57,54c.7.1,1.41.17,2.14.23.07-.25.14-.5.21-.73-.76-.16-1.5-.34-2.27-.55C68.6,53.43,68.57,53.82,68.57,54Z"/><path class="cls-3" d="M65.27,52.62c-.44.07-.88.16-1.32.19a.47.47,0,0,1-.16,0l.16.05,1.32.47c.66.17,1.31.35,2,.49,0-.32.07-.74.14-1.27-.2-.06-.39-.13-.57-.2C66.3,52.48,65.79,52.55,65.27,52.62Z"/><path class="cls-3" d="M60.25,49c-.91.18-1.85.28-2.78.37l.63.48a29.59,29.59,0,0,0,3-.25C60.81,49.4,60.53,49.18,60.25,49Z"/><path class="cls-3" d="M129.83,30.86c-8.85-5.73-21.18-7.13-30.67-3.49-.58.22-1.16.46-1.74.69l-1.31.53a24,24,0,0,0-1.56-7.06,37.49,37.49,0,0,1-2.1,8.53l-.82.34-.87.37c.27-.65.52-1.3.75-2a36.29,36.29,0,0,0,1.93-9.74,23.8,23.8,0,0,0-2.21-3.45,43.86,43.86,0,0,1-1,7c-.21.92-.44,1.82-.71,2.71a39.57,39.57,0,0,1-3,7.25l-2,.84a38.55,38.55,0,0,0,4.34-10.75c.21-.88.39-1.77.55-2.67A40,40,0,0,0,90,14.1a25.7,25.7,0,0,0-2.23-2.2c-.06,1.14-.14,2.25-.27,3.35-.09.81-.19,1.63-.33,2.44A44.18,44.18,0,0,1,82,32.28c-.45.8-.91,1.56-1.4,2.3l-.39.56-2.3.92a37,37,0,0,0,2.76-4.12c.07-7.8-1.47-18.41-8.92-25.84a23.19,23.19,0,0,0-4.43.46c3.87,4.25,7.51,16.94,7.25,30.79l-1.3.49c.44-14.48-3.49-27.69-7.47-30.91A25,25,0,0,0,62,8.29a81.71,81.71,0,0,1,7.39,30.92c-.2.06-.4.14-.59.21l-.34.11-.39.12L66.93,40a33,33,0,0,1-2.79-2.21c-.55-.5-1.06-1-1.58-1.54a32.61,32.61,0,0,1-9.63-20.71c-.26.37-.54.72-.81,1.1a28.88,28.88,0,0,0,8,24.32c.28.29.59.56.88.85l-1.49.42-.35-.35a30.41,30.41,0,0,1-8.67-22.47c0-.06,0,0-.09.18-1.87,8.88.08,17.28,5.38,23.58-.48.12-1,.23-1.45.33a27.77,27.77,0,0,1-5.95-18.07A24.76,24.76,0,0,0,48,30.21,23.87,23.87,0,0,0,52.3,44l-1.44.26c-6.5,1.09-13,1.21-18.8-.69-2.73-.89-6-2.38-6-4.49C26,34.61,38.52,28.24,47.19,24.94a23.22,23.22,0,0,1,.63-2.35l-.21,0c-2.43.89-23.74,8.89-23.6,16.44,0,2.69,2.48,4.78,7.42,6.38A34.52,34.52,0,0,0,42.16,47a56.43,56.43,0,0,0,10-1l1.49-.29A25.52,25.52,0,0,0,56,48.11a23.33,23.33,0,0,0,2.78-.22c-.62-.49-1.24-1-1.81-1.56-.36-.34-.71-.7-1-1.06l1.51-.36c.15.15.29.3.45.45a25.45,25.45,0,0,0,2.67,2.21c.48.36,1,.71,1.49,1l1.11.66c.27.14.52.26.76.4s.69.36,1,.52l.32.14c.55.25,1.12.48,1.68.69.21.09.43.16.64.23l1.29.41c.14.05.3.08.44.12.68.19,1.35.35,2,.48l1.31.21a25.89,25.89,0,0,0,3.51.25c.51,0,1,0,1.54-.06a26.86,26.86,0,0,0,3.89-.49c.21-.16.43-.32.66-.51H82a33,33,0,0,1-3.72-.24c-.46-.06-.92-.15-1.36-.22a28.37,28.37,0,0,1-3.63-.81l-.17,0c-.43-.12-.85-.28-1.28-.42-.18,0-.35-.13-.53-.2-.73-.26-1.45-.55-2.18-.86L69,48.8c-.37-.16-.76-.36-1.13-.55A3.29,3.29,0,0,1,67.4,48c-.48-.25-.94-.52-1.4-.78s-.6-.37-.9-.57-.34-.19-.5-.3-.6-.41-.92-.62c-.82-.59-1.62-1.21-2.39-1.88l1.56-.45c.24.19.46.39.71.58.46.35.92.71,1.39,1s.75.5,1.12.73.9.57,1.36.81l.53.27c.36.2.69.37,1.05.53a1.46,1.46,0,0,0,.25.13l1.39.62c.48.19,1,.37,1.47.53s.73.24,1.1.37a.45.45,0,0,0,.16,0c.58.18,1.19.34,1.77.48.76.18,1.54.34,2.32.46.44.07.89.13,1.35.16a29.39,29.39,0,0,0,4.88.14c.64,0,1.29-.1,2-.17h0l0,0a25,25,0,0,0,3-2.48c-.41,0-.82,0-1.24-.07L86,47.4a39.85,39.85,0,0,1-5.66-1l-.25-.05L78.82,46l-.11,0a27.7,27.7,0,0,1-2.83-1c-.48-.17-1-.4-1.44-.62l-.3-.14c-.42-.17-.85-.33-1.26-.53l-.42-.21c-.44-.23-.85-.48-1.27-.71s-1.17-.6-1.72-1L69,41.48l.45-.15h0l1.19-.41c.55.32,1.12.64,1.69.94.26-.22.53-.43.79-.66,0-.39.06-.79.08-1.18l1.32-.47c0,.13,0,.26,0,.39.21-.19.4-.41.6-.62l2.78-1.06a35.35,35.35,0,0,1-3.52,3.61c-.25.22-.49.45-.76.66l.67.28c.48.23.94.43,1.44.62a34.39,34.39,0,0,0,4.46-4.09c.55-.6,1-1.22,1.56-1.86.28-.36.55-.73.83-1.11l2.29-.95a38.16,38.16,0,0,1-3.42,4.51c-.52.58-1.07,1.11-1.63,1.66A31.91,31.91,0,0,1,77.12,44c.67.25,1.34.48,2,.67.29.09.57.2.87.27l.53-.43a34.29,34.29,0,0,0,9-11l.85-.35,1-.41.34-.14A29,29,0,0,1,88.43,46l-.18.3c.57,0,1.13.07,1.72.08a24.1,24.1,0,0,0,6.19-15.59l1.37-.54c.78-.31,1.57-.64,2.35-.94,8.92-3.42,20.52-2.1,28.85,3.3a1,1,0,0,0,1.1-1.7Z"/></g></g><g id="cat"><path id="nose" class="cls-4" d="M80,108.57c-7.5-3-7.94-13.9-7.77-15.83a14.31,14.31,0,0,0,2-2.47c3.49,0,3.73-1.4,3.73-1.79a.31.31,0,0,0,0-.09,14.7,14.7,0,0,0-6.14-2,7,7,0,0,0-.9,0,9,9,0,0,0-6,2.08h0a4.83,4.83,0,0,0,3.62,2.28C70,92.35,70.6,92.84,71,93a19.16,19.16,0,0,1-1,8.73c-1.27,3.54-3.41,5.86-6.38,6.88a.5.5,0,0,0-.31.63.51.51,0,0,0,.48.34.45.45,0,0,0,.16,0c3.29-1.13,5.74-3.81,7.08-7.74a19.72,19.72,0,0,0,.74-2.91,24.08,24.08,0,0,0,.88,3c1.47,3.85,3.81,6.44,7,7.69a.39.39,0,0,0,.18,0,.51.51,0,0,0,.47-.32A.51.51,0,0,0,80,108.57Z"/><g id="whiskers"><path class="cls-4" d="M117.24,126.41A169.37,169.37,0,0,0,93.13,110.5c-.9-.49-1.42-.75-1.45-.77A.51.51,0,0,0,91,110a.51.51,0,0,0,.23.67s.69.35,1.81,1a169.59,169.59,0,0,1,22.88,15.07,120.23,120.23,0,0,1,13,11.69.48.48,0,0,0,.36.16.52.52,0,0,0,.35-.14.49.49,0,0,0,0-.7A120.92,120.92,0,0,0,117.24,126.41Z"/><path class="cls-4" d="M115.11,114a170.17,170.17,0,0,0-26.18-12.51l-1.56-.57a.5.5,0,0,0-.63.31.49.49,0,0,0,.3.63c.06,0,1,.37,2.66,1a165.47,165.47,0,0,1,26.57,13A68.13,68.13,0,0,1,131,127.7a.52.52,0,0,0,.38.17.54.54,0,0,0,.33-.12.5.5,0,0,0,0-.71C127.44,122.14,121.37,117.71,115.11,114Z"/><path class="cls-4" d="M134.64,111.83a85.54,85.54,0,0,0-18.31-9.06A151.19,151.19,0,0,0,85,95.26l-.7-.08a.5.5,0,0,0-.1,1s.6.06,1.57.19A149.68,149.68,0,0,1,117,104.11a82.44,82.44,0,0,1,17.05,8.55.6.6,0,0,0,.28.08.5.5,0,0,0,.28-.91Z"/><path class="cls-4" d="M51.8,109.73l-1.64.86a170.9,170.9,0,0,0-24.93,16.63,119,119,0,0,0-11.37,10.44.49.49,0,0,0,0,.7.52.52,0,0,0,.35.14.48.48,0,0,0,.36-.16,119.72,119.72,0,0,1,12-10.93,170.11,170.11,0,0,1,23.46-15.62c1.36-.74,2.15-1.14,2.19-1.16a.5.5,0,1,0-.44-.9Z"/><path class="cls-4" d="M56.1,100.87l-1.26.46a174,174,0,0,0-24.25,11.31c-7,4-14,8.92-18.89,14.4a.51.51,0,0,0,0,.71.54.54,0,0,0,.34.12.51.51,0,0,0,.37-.17c4.4-5,10.63-9.46,17-13.25a169.53,169.53,0,0,1,24.64-11.78c1.42-.54,2.27-.84,2.32-.86a.5.5,0,0,0,.31-.63A.51.51,0,0,0,56.1,100.87Z"/><path class="cls-4" d="M59.18,95.18l-.68.07a153.33,153.33,0,0,0-30.11,7.08,87.13,87.13,0,0,0-19.56,9.5.49.49,0,0,0-.13.69.47.47,0,0,0,.41.22.57.57,0,0,0,.28-.08,84.8,84.8,0,0,1,18.37-9,151.46,151.46,0,0,1,30-7.26l1.5-.18a.5.5,0,1,0-.1-1Z"/></g><path id="snout" class="cls-5" d="M91.68,109.73s.55.28,1.45.77a4,4,0,0,0-.39-1.8c-.4-.8-1.5-3.1-3-5.9-1.63-.62-2.6-1-2.66-1a.49.49,0,0,1-.3-.63.5.5,0,0,1,.63-.31l1.56.57c-.94-1.65-2-3.4-3.17-5.08-1-.13-1.53-.19-1.57-.19a.5.5,0,0,1,.1-1l.7.08c-2-2.8-4.26-5.25-6.46-6.48l-.55-.3c0,.39-.24,1.79-3.73,1.79a14.31,14.31,0,0,1-2,2.47c-.17,1.93.27,12.85,7.77,15.83a.51.51,0,0,1,.28.65.51.51,0,0,1-.47.32.39.39,0,0,1-.18,0c-3.14-1.25-5.48-3.84-7-7.69a24.08,24.08,0,0,1-.88-3,19.72,19.72,0,0,1-.74,2.91c-1.34,3.93-3.79,6.61-7.08,7.74a.45.45,0,0,1-.16,0,.51.51,0,0,1-.48-.34.5.5,0,0,1,.31-.63c3-1,5.11-3.34,6.38-6.88A19.16,19.16,0,0,0,71,93c-.39-.12-1-.61-2.46-2.26a4.83,4.83,0,0,1-3.62-2.28l-1,.68a23.59,23.59,0,0,0-5.38,6.15l.68-.07a.5.5,0,1,1,.1,1l-1.5.18c-1,1.63-2,3.34-2.94,5l1.26-.46a.51.51,0,0,1,.64.31.5.5,0,0,1-.31.63s-.9.32-2.32.86c-1.59,3-2.85,5.53-3.48,6.69a4.87,4.87,0,0,0-.47,1.23l1.64-.86a.5.5,0,1,1,.44.9s-.83.42-2.19,1.16c.1,6.22,10.61,14,12.29,15.37,4.85,4.06,6.86,5.36,9.62,5.45a6.56,6.56,0,0,0,1.41-.09c2.59-.44,4.79-2.44,9.14-6.26,2.47-2.18,9.61-9.44,10.53-14.68-1.12-.6-1.78-.93-1.81-1A.51.51,0,0,1,91,110,.51.51,0,0,1,91.68,109.73Z"/><g id="ears"><path class="cls-4" d="M112.26,65.62a64.27,64.27,0,0,0-1.67-6.48C101.07,63.73,97,78.45,97,78.45c8,5,11.51,16.67,11.51,16.67,2.93-3.37,4.35-7.79,4.88-12.36A55.84,55.84,0,0,0,112.26,65.62Z"/><path class="cls-4" d="M32.47,59.2a68.28,68.28,0,0,0-2,10.84c-.19,1.85-.32,3.84-.33,5.89,0,6.81,1.24,14.22,5.87,19.13,0,0,3.07-11.79,10.82-17.12C46.84,77.94,42.16,63.4,32.47,59.2Z"/></g><g id="catchlights"><path class="cls-2" d="M86.72,85a1.93,1.93,0,0,0,.44-3.82l-.14,0a1.45,1.45,0,0,0-.3,0,1.93,1.93,0,0,0-1,.26,2.08,2.08,0,0,0-.66.59,2,2,0,0,0-.32,1.09A1.92,1.92,0,0,0,86.72,85Z"/><path class="cls-2" d="M55.06,83.06a1.94,1.94,0,0,0,3.88,0A2,2,0,0,0,58.61,82a2.08,2.08,0,0,0-.66-.59,1.9,1.9,0,0,0-1-.26,1.53,1.53,0,0,0-.3,0l-.13,0A1.93,1.93,0,0,0,55.06,83.06Z"/></g><g id="irises"><path class="cls-6" d="M87.13,91.49c3.4.65,6.59-1.12,7.13-3.95s-1.78-5.64-5.18-6.29a7.59,7.59,0,0,0-1.7-.13h0l-.34,0,.14,0a1.93,1.93,0,1,1-2.37,1.89A2,2,0,0,1,85.11,82a2.08,2.08,0,0,1,.66-.59A5.38,5.38,0,0,0,82.39,84a4.31,4.31,0,0,0-.45,1.23,5.23,5.23,0,0,0,2.6,5.28A7.32,7.32,0,0,0,87.13,91.49Z"/><path class="cls-6" d="M61.34,84A5.42,5.42,0,0,0,58,81.38a2.08,2.08,0,0,1,.66.59,2,2,0,0,1,.33,1.09,1.94,1.94,0,1,1-2.37-1.89l.13,0-.36,0a7.63,7.63,0,0,0-1.7.13c-3.4.65-5.72,3.46-5.18,6.29s3.73,4.6,7.13,3.95a7.32,7.32,0,0,0,2.59-1,5.23,5.23,0,0,0,2.6-5.28A4.62,4.62,0,0,0,61.34,84Z"/></g><g id="eyes"><path class="cls-5" d="M87.38,81.12a7.59,7.59,0,0,1,1.7.13c3.4.65,5.72,3.46,5.18,6.29s-3.73,4.6-7.13,3.95a7.32,7.32,0,0,1-2.59-1,5.23,5.23,0,0,1-2.6-5.28A4.31,4.31,0,0,1,82.39,84a22.75,22.75,0,0,0-2.22,2.32,17.12,17.12,0,0,0,4.33,4.25c3.27,2.22,8.19,3.66,14-.66C98.55,89.87,94.49,79.6,87.38,81.12Z"/><path class="cls-5" d="M59.22,90.53a17.12,17.12,0,0,0,4.33-4.25A23.87,23.87,0,0,0,61.34,84a4.62,4.62,0,0,1,.44,1.23,5.23,5.23,0,0,1-2.6,5.28,7.32,7.32,0,0,1-2.59,1c-3.4.65-6.59-1.12-7.13-3.95s1.78-5.64,5.18-6.29a7.63,7.63,0,0,1,1.7-.13c-7.11-1.52-11.17,8.75-11.17,8.75C51,94.19,56,92.75,59.22,90.53Z"/></g><g id="head"><path class="cls-7" d="M88.93,101.44A170.17,170.17,0,0,1,115.11,114c-2.38-3.77-4.63-6.74-4.63-6.74,2,1.08,9.75,2.34,9.75,2.34a38.58,38.58,0,0,1-3.2-5.44,149.68,149.68,0,0,0-31.27-7.75C86.92,98,88,99.79,88.93,101.44Z"/><path class="cls-7" d="M116.27,115.83a165.47,165.47,0,0,0-26.57-13c1.54,2.8,2.64,5.1,3,5.9a4,4,0,0,1,.39,1.8,169.37,169.37,0,0,1,24.11,15.91c2.09-.36,3.4-.55,3.4-.55C120.3,123.15,118.36,119.32,116.27,115.83Z"/><path class="cls-7" d="M93,111.58c-.92,5.24-8.06,12.5-10.53,14.68-4.35,3.82-6.55,5.82-9.14,6.26a6.56,6.56,0,0,1-1.41.09c-2.76-.09-4.77-1.39-9.62-5.45-1.68-1.41-12.19-9.15-12.29-15.37a170.11,170.11,0,0,0-23.46,15.62c1.87.27,4.56.69,7.58,1.24A68.25,68.25,0,0,1,29.53,144h84.4a84.59,84.59,0,0,1-4.66-16c2.47-.53,4.77-1,6.65-1.31A169.59,169.59,0,0,0,93,111.58Z"/><path class="cls-7" d="M58.5,95.25a23.59,23.59,0,0,1,5.38-6.15l1-.68h0a9,9,0,0,1,6-2.08,7,7,0,0,1,.9,0,14.7,14.7,0,0,1,6.14,2,.31.31,0,0,1,0,.09l.55.3C80.73,90,83,92.46,85,95.26a151.19,151.19,0,0,1,31.34,7.51c-1.88-3.58-3.72-7.25-3.72-7.25a103.47,103.47,0,0,0,.75-12.76c-.53,4.57-2,9-4.88,12.36,0,0-3.54-11.66-11.51-16.67,0,0,4.1-14.72,13.62-19.31a64.27,64.27,0,0,1,1.67,6.48c-.68-5.4-1.43-8.84-1.43-8.84a53.7,53.7,0,0,0-23,15c-2.43-1.27-9.13-1.92-13.09-2.19,0,0-.38,0-1-.07-1.27-.08-2.08-.11-2.08-.11v.06h-.24v-.09s-.9.06-2.28.19l-.76.07c-4,.37-10.64,1.18-13.05,2.51A53.67,53.67,0,0,0,32,57.75,121.9,121.9,0,0,0,30.48,70a68.28,68.28,0,0,1,2-10.84c9.69,4.2,14.37,18.74,14.37,18.74C39.09,83.27,36,95.06,36,95.06c-4.63-4.91-5.91-12.32-5.87-19.13a113.24,113.24,0,0,0,1,20.59s-1.28,2.74-2.78,5.81A153.33,153.33,0,0,1,58.5,95.25ZM82.39,84a5.38,5.38,0,0,1,3.38-2.58,1.93,1.93,0,0,1,1-.26,1.45,1.45,0,0,1,.3,0l.34,0h0c7.11-1.52,11.17,8.75,11.17,8.75-5.86,4.32-10.78,2.88-14,.66a17.12,17.12,0,0,1-4.33-4.25A22.75,22.75,0,0,1,82.39,84Zm-26-2.84.36,0a1.53,1.53,0,0,1,.3,0,1.9,1.9,0,0,1,1,.26A5.42,5.42,0,0,1,61.34,84a23.87,23.87,0,0,1,2.21,2.32,17.12,17.12,0,0,1-4.33,4.25c-3.27,2.22-8.19,3.66-14-.66C45.17,89.87,49.23,79.6,56.34,81.12Z"/><path class="cls-7" d="M30.59,112.64a174,174,0,0,1,24.25-11.31c.91-1.64,1.9-3.35,2.94-5a151.46,151.46,0,0,0-30,7.26c-1.65,3.36-3.39,6.73-3.86,7.13,0,0,7.76-1.46,9.7-2.59C33.6,108.15,32.27,110,30.59,112.64Z"/><path class="cls-7" d="M50.63,109.36c.63-1.16,1.89-3.73,3.48-6.69a169.53,169.53,0,0,0-24.64,11.78c-2.48,4.08-5.22,9.24-5.57,12.6l1.33.17a170.9,170.9,0,0,1,24.93-16.63A4.87,4.87,0,0,1,50.63,109.36Z"/></g></g></g></svg>